<svg xmlns="http://www.w3.org/2000/svg" viewBox="0 0 120 120">
  <defs>
    <clipPath id="circ"><circle cx="60" cy="60" r="58"/></clipPath>
  </defs>
  <circle cx="60" cy="60" r="58" fill="#2a1a10"/>
  <g clip-path="url(#circ)">
    <ellipse cx="60" cy="130" rx="40" ry="35" fill="#8b6b4a"/>
    <rect x="50" y="78" width="20" height="14" rx="4" fill="#b8916a"/>
    <ellipse cx="60" cy="52" rx="28" ry="30" fill="#b8916a"/>
    <!-- Short curly hair -->
    <circle cx="38" cy="32" r="8" fill="#1a1a1a"/>
    <circle cx="52" cy="24" r="9" fill="#1a1a1a"/>
    <circle cx="68" cy="24" r="9" fill="#1a1a1a"/>
    <circle cx="82" cy="32" r="8" fill="#1a1a1a"/>
    <circle cx="44" cy="26" r="6" fill="#1a1a1a"/>
    <circle cx="76" cy="26" r="6" fill="#1a1a1a"/>
    <ellipse cx="47" cy="52" rx="4.5" ry="5" fill="white"/>
    <ellipse cx="73" cy="52" rx="4.5" ry="5" fill="white"/>
    <circle cx="48" cy="52" r="2.5" fill="#1a1a1a"/>
    <circle cx="74" cy="52" r="2.5" fill="#1a1a1a"/>
    <circle cx="49" cy="51" r="1" fill="white"/>
    <circle cx="75" cy="51" r="1" fill="white"/>
    <path d="M40 44 Q47 41 54 44" stroke="#1a1a1a" stroke-width="2" fill="none" stroke-linecap="round"/>
    <path d="M66 44 Q73 41 80 44" stroke="#1a1a1a" stroke-width="2" fill="none" stroke-linecap="round"/>
    <path d="M58 57 Q60 62 62 57" stroke="#9a7a5a" stroke-width="1.5" fill="none"/>
    <path d="M50 66 Q60 72 70 66" stroke="#9a7a5a" stroke-width="2" fill="none" stroke-linecap="round"/>
    <!-- Cap -->
    <path d="M30 38 Q32 20 60 16 Q88 20 90 38 L88 36 Q85 24 60 20 Q35 24 32 36 Z" fill="#c0392b"/>
    <rect x="28" y="34" width="64" height="6" rx="3" fill="#c0392b"/>
  </g>
</svg>
